# xmcd CD database file
#
# Track frame offsets:
#	183
#	10368
#	21535
#	35045
#	46525
#	55858
#	66958
#	79450
#	92040
#	101885
#	110633
#	120213
#	130525
#	143190
#	155968
#
# Disc length: 2204 seconds
#
# Revision: 2
# Processed by: cddbd v1.5.2PL0 Copyright (c) Steve Scherf et al.
# Submitted via: CDex 1.51
#
DISCID=d1089a0f
DTITLE=Various Artist - Collection Dansez Le Twist
DYEAR=1993
DGENRE=Twist
TTITLE0=01 - Billy Bridge - Surboum
TTITLE1=02 - Burt Blanca - Twist And Shout
TTITLE2=03 - Burt Blanca - Huggly Gully
TTITLE3=04 - Burt Blanca - A Whole Lot Of Surfin
TTITLE4=05 - Burt Blanca - She Only Wants Me
TTITLE5=06 - Burt Blanca - Locomotion
TTITLE6=07 - Burt Blanca - Lilly
TTITLE7=08 - Billy Bridge - Laisser Nous Twister
TTITLE8=09 - Les Frangins - Saint Tropez Twist
TTITLE9=10 - Les Frangins - Embarquez
TTITLE10=11 - Burt Blanca - BB Twist
TTITLE11=12 - Burt Blanca - Twist Party
TTITLE12=13 - The Tell Stars - Want To Sing
TTITLE13=14 - Burt Blanca - Baby If You Want
TTITLE14=15 - Burt Blanca - Little Twister
EXTD=YEAR: 1993
EXTT0=
EXTT1=
EXTT2=
EXTT3=
EXTT4=
EXTT5=
EXTT6=
EXTT7=
EXTT8=
EXTT9=
EXTT10=
EXTT11=
EXTT12=
EXTT13=
EXTT14=
PLAYORDER=
